<?xml version="1.0" encoding="UTF-8" standalone="no"?>
<!-- Creator: CorelDRAW 2026 -->

<svg
   xml:space="preserve"
   width="109.575mm"
   height="67.6385mm"
   version="1.1"
   style="shape-rendering:geometricPrecision; text-rendering:geometricPrecision; image-rendering:optimizeQuality; fill-rule:evenodd; clip-rule:evenodd"
   viewBox="0 0 10964.06 6767.93"
   id="svg15"
   xmlns="http://www.w3.org/2000/svg"
   xmlns:svg="http://www.w3.org/2000/svg">
 <defs
   id="defs1">
  <style
   type="text/css"
   id="style1">
   <![CDATA[
    .str0 {stroke:#E31E24;stroke-width:50.03;stroke-miterlimit:22.9256}
    .fil0 {fill:none}
   ]]>
  </style>
 </defs>
 <g
   id="Laag_x0020_1">
  <metadata
   id="CorelCorpID_0Corel-Layer" />
  <polygon
   class="fil0 str0"
   points="7477.53,1501.01 7477.53,6723.06 3466.68,6723.06 3466.68,1501.01 5498.58,448.65 "
   id="polygon1" />
  <polygon
   class="fil0 str0"
   points="3069.56,1408.34 5541.6,28.38 7815.08,1196.55 7533.79,1527.48 5498.58,448.65 3155.6,1613.52 "
   id="polygon2" />
  <rect
   class="fil0 str0"
   x="25.02"
   y="3201.98"
   width="3444.98"
   height="1052.34"
   id="rect2" />
  <rect
   class="fil0 str0"
   x="322.85"
   y="4247.71"
   width="3157.06"
   height="2495.21"
   id="rect3" />
  <rect
   class="fil0 str0"
   x="7530.48"
   y="3235.07"
   width="3408.57"
   height="1092.06"
   id="rect4" />
  <rect
   class="fil0 str0"
   x="7530.48"
   y="4346.99"
   width="3090.87"
   height="2362.83"
   id="rect5" />
  <path
   class="fil0 str0"
   d="M3863.79 6117.46l794.23 0 0 -1042.57c0,-91.31 -177.8,-165.32 -397.12,-165.32 -219.31,0 -397.11,74.01 -397.11,165.32l0 1042.57z"
   id="path5" />
  <path
   class="fil0 str0"
   d="M5114.71 6689.97l794.23 0 0 -1565.28c0,-137.08 -177.8,-248.2 -397.12,-248.2 -219.31,0 -397.11,111.12 -397.11,248.2l0 1565.28z"
   id="path6" />
  <path
   class="fil0 str0"
   d="M852.34 6719.88l794.23 0 0 -1565.28c0,-137.08 -177.8,-248.2 -397.12,-248.2 -219.31,0 -397.11,111.12 -397.11,248.2l0 1565.28z"
   id="path7" />
  <path
   class="fil0 str0"
   d="M9340.66 6712.81l794.23 0 0 -1565.28c0,-137.08 -177.8,-248.2 -397.12,-248.2 -219.31,0 -397.11,111.12 -397.11,248.2l0 1565.28z"
   id="path8" />
  <path
   class="fil0 str0"
   d="M6312.67 6120.77l794.23 0 0 -1042.57c0,-91.31 -177.8,-165.32 -397.12,-165.32 -219.31,0 -397.11,74.01 -397.11,165.32l0 1042.57z"
   id="path9" />
  <path
   class="fil0 str0"
   d="M6302.73 4049.15l794.23 0 0 -1042.57c0,-91.31 -177.8,-165.32 -397.12,-165.32 -219.31,0 -397.11,74.01 -397.11,165.32l0 1042.57z"
   id="path10" />
  <path
   class="fil0 str0"
   d="M5094.84 4035.91l794.23 0 0 -1042.57c0,-91.31 -177.8,-165.32 -397.12,-165.32 -219.31,0 -397.11,74.01 -397.11,165.32l0 1042.57z"
   id="path11" />
  <path
   class="fil0 str0"
   d="M3883.65 4035.91l794.23 0 0 -1042.57c0,-91.31 -177.8,-165.32 -397.12,-165.32 -219.31,0 -397.11,74.01 -397.11,165.32l0 1042.57z"
   id="path12" />
  <path
   class="fil0 str0"
   d="M2056.92 6122.41l794.23 0 0 -1042.57c0,-91.31 -177.8,-165.32 -397.12,-165.32 -219.31,0 -397.11,74.01 -397.11,165.32l0 1042.57z"
   id="path13" />
  <path
   class="fil0 str0"
   d="M8126.15 6140.62l794.23 0 0 -1042.57c0,-91.31 -177.8,-165.32 -397.12,-165.32 -219.31,0 -397.11,74.01 -397.11,165.32l0 1042.57z"
   id="path14" />
  <path
   class="fil0 str0"
   d="M5333.12 2113.78l350.78 0 0 -660.3c0,-57.82 -78.53,-104.7 -175.4,-104.7 -96.86,0 -175.39,46.88 -175.39,104.7l0 660.3z"
   id="path15" />
 </g>
</svg>
